<mxfile host="app.diagrams.net" agent="Mozilla/5.0 (Windows NT 10.0; Win64; x64) AppleWebKit/537.36 (KHTML, like Gecko) Chrome/126.0.0.0 Safari/537.36" version="25.0.1">
  <diagram name="Page-1" id="c37626ed-c26b-45fb-9056-f9ebc6bb27b6">
    <mxGraphModel dx="1103" dy="-282" grid="1" gridSize="10" guides="1" tooltips="1" connect="1" arrows="1" fold="1" page="1" pageScale="1" pageWidth="1100" pageHeight="850" background="none" math="0" shadow="0">
      <root>
        <mxCell id="0" />
        <mxCell id="1" parent="0" />
        <mxCell id="qknaHqKINtFZTUZbZVZ1-1" value="" style="whiteSpace=wrap;html=1;rounded=0;shadow=0;comic=0;strokeWidth=1;fontFamily=Verdana;fontSize=14;fillColor=#f5f5f5;strokeColor=none;fontStyle=1;verticalAlign=top;" vertex="1" parent="1">
          <mxGeometry x="530" y="1538" width="1262" height="642" as="geometry" />
        </mxCell>
        <mxCell id="qknaHqKINtFZTUZbZVZ1-2" value="" style="shape=mxgraph.cisco.wireless.radio_tower;sketch=0;html=1;pointerEvents=1;dashed=0;fillColor=#036897;strokeColor=#6c8ebf;strokeWidth=2;verticalLabelPosition=bottom;verticalAlign=top;align=center;outlineConnect=0;fillStyle=auto;" vertex="1" parent="1">
          <mxGeometry x="620" y="1706" width="90" height="230" as="geometry" />
        </mxCell>
        <mxCell id="qknaHqKINtFZTUZbZVZ1-23" style="rounded=0;orthogonalLoop=1;jettySize=auto;html=1;exitX=1;exitY=0.5;exitDx=0;exitDy=0;exitPerimeter=0;endArrow=none;endFill=0;strokeWidth=4;" edge="1" parent="1">
          <mxGeometry relative="1" as="geometry">
            <mxPoint x="731.4999999999995" y="1858.44" as="sourcePoint" />
            <mxPoint x="840.0000000000005" y="1858.44" as="targetPoint" />
          </mxGeometry>
        </mxCell>
        <mxCell id="qknaHqKINtFZTUZbZVZ1-4" value="" style="shape=mxgraph.cisco.servers.fileserver;sketch=0;html=1;pointerEvents=1;dashed=0;fillColor=#036897;strokeColor=#ffffff;strokeWidth=2;verticalLabelPosition=bottom;verticalAlign=top;align=center;outlineConnect=0;" vertex="1" parent="1">
          <mxGeometry x="688.5" y="1828" width="43" height="62" as="geometry" />
        </mxCell>
        <mxCell id="qknaHqKINtFZTUZbZVZ1-5" value="" style="shape=mxgraph.cisco.modems_and_phones.modem;sketch=0;html=1;pointerEvents=1;dashed=0;fillColor=#036897;strokeColor=#ffffff;strokeWidth=2;verticalLabelPosition=bottom;verticalAlign=top;align=center;outlineConnect=0;points=[[0,0.5,0,0,0],[0,1,0,0,0],[0.11,0.2,0,0,0],[0.22,1,0,0,0],[0.38,1,0,0,0],[0.5,0,0,0,0],[0.5,1,0,0,0],[0.62,1,0,0,0],[0.73,1,0,0,0],[0.92,0.72,0,0,0],[1,0,0,0,0],[1,0.5,0,0,0]];" vertex="1" parent="1">
          <mxGeometry x="840" y="1834" width="138" height="50" as="geometry" />
        </mxCell>
        <mxCell id="qknaHqKINtFZTUZbZVZ1-39" style="edgeStyle=orthogonalEdgeStyle;rounded=0;orthogonalLoop=1;jettySize=auto;html=1;exitX=0.5;exitY=1;exitDx=0;exitDy=0;exitPerimeter=0;strokeColor=#FF0000;strokeWidth=4;endArrow=none;endFill=0;" edge="1" parent="1" source="qknaHqKINtFZTUZbZVZ1-6" target="qknaHqKINtFZTUZbZVZ1-7">
          <mxGeometry relative="1" as="geometry" />
        </mxCell>
        <mxCell id="qknaHqKINtFZTUZbZVZ1-6" value="" style="shape=mxgraph.cisco.misc.longreach_cpe;sketch=0;html=1;pointerEvents=1;dashed=0;fillColor=#036897;strokeColor=#ffffff;strokeWidth=2;verticalLabelPosition=bottom;verticalAlign=top;align=center;outlineConnect=0;rotation=-90;" vertex="1" parent="1">
          <mxGeometry x="1080" y="1680" width="61" height="59" as="geometry" />
        </mxCell>
        <mxCell id="qknaHqKINtFZTUZbZVZ1-40" value="" style="edgeStyle=orthogonalEdgeStyle;rounded=0;orthogonalLoop=1;jettySize=auto;html=1;strokeColor=#FF0000;strokeWidth=4;endArrow=none;endFill=0;" edge="1" parent="1" source="qknaHqKINtFZTUZbZVZ1-7" target="qknaHqKINtFZTUZbZVZ1-8">
          <mxGeometry relative="1" as="geometry" />
        </mxCell>
        <mxCell id="qknaHqKINtFZTUZbZVZ1-7" value="" style="shape=mxgraph.cisco.misc.longreach_cpe;sketch=0;html=1;pointerEvents=1;dashed=0;fillColor=#036897;strokeColor=#ffffff;strokeWidth=2;verticalLabelPosition=bottom;verticalAlign=top;align=center;outlineConnect=0;rotation=-90;" vertex="1" parent="1">
          <mxGeometry x="1214" y="1680" width="61" height="59" as="geometry" />
        </mxCell>
        <mxCell id="qknaHqKINtFZTUZbZVZ1-41" value="" style="edgeStyle=orthogonalEdgeStyle;rounded=0;orthogonalLoop=1;jettySize=auto;html=1;strokeColor=#FF0000;strokeWidth=4;endArrow=none;endFill=0;" edge="1" parent="1" source="qknaHqKINtFZTUZbZVZ1-8" target="qknaHqKINtFZTUZbZVZ1-9">
          <mxGeometry relative="1" as="geometry" />
        </mxCell>
        <mxCell id="qknaHqKINtFZTUZbZVZ1-8" value="" style="shape=mxgraph.cisco.misc.longreach_cpe;sketch=0;html=1;pointerEvents=1;dashed=0;fillColor=#036897;strokeColor=#ffffff;strokeWidth=2;verticalLabelPosition=bottom;verticalAlign=top;align=center;outlineConnect=0;rotation=-90;" vertex="1" parent="1">
          <mxGeometry x="1343" y="1680" width="61" height="59" as="geometry" />
        </mxCell>
        <mxCell id="qknaHqKINtFZTUZbZVZ1-9" value="" style="shape=mxgraph.cisco.misc.longreach_cpe;sketch=0;html=1;pointerEvents=1;dashed=0;fillColor=#036897;strokeColor=#ffffff;strokeWidth=2;verticalLabelPosition=bottom;verticalAlign=top;align=center;outlineConnect=0;rotation=-90;" vertex="1" parent="1">
          <mxGeometry x="1483" y="1680" width="61" height="59" as="geometry" />
        </mxCell>
        <mxCell id="qknaHqKINtFZTUZbZVZ1-42" value="" style="edgeStyle=orthogonalEdgeStyle;rounded=0;orthogonalLoop=1;jettySize=auto;html=1;strokeColor=#FF0000;strokeWidth=4;endArrow=none;endFill=0;" edge="1" parent="1" source="qknaHqKINtFZTUZbZVZ1-10" target="qknaHqKINtFZTUZbZVZ1-11">
          <mxGeometry relative="1" as="geometry" />
        </mxCell>
        <mxCell id="qknaHqKINtFZTUZbZVZ1-10" value="" style="shape=mxgraph.cisco.misc.longreach_cpe;sketch=0;html=1;pointerEvents=1;dashed=0;fillColor=#036897;strokeColor=#ffffff;strokeWidth=2;verticalLabelPosition=bottom;verticalAlign=top;align=center;outlineConnect=0;rotation=-90;" vertex="1" parent="1">
          <mxGeometry x="1084" y="1780" width="61" height="59" as="geometry" />
        </mxCell>
        <mxCell id="qknaHqKINtFZTUZbZVZ1-43" value="" style="edgeStyle=orthogonalEdgeStyle;rounded=0;orthogonalLoop=1;jettySize=auto;html=1;strokeColor=#FF0000;strokeWidth=4;endArrow=none;endFill=0;" edge="1" parent="1" source="qknaHqKINtFZTUZbZVZ1-11" target="qknaHqKINtFZTUZbZVZ1-12">
          <mxGeometry relative="1" as="geometry" />
        </mxCell>
        <mxCell id="qknaHqKINtFZTUZbZVZ1-11" value="" style="shape=mxgraph.cisco.misc.longreach_cpe;sketch=0;html=1;pointerEvents=1;dashed=0;fillColor=#036897;strokeColor=#ffffff;strokeWidth=2;verticalLabelPosition=bottom;verticalAlign=top;align=center;outlineConnect=0;rotation=-90;" vertex="1" parent="1">
          <mxGeometry x="1218" y="1780" width="61" height="59" as="geometry" />
        </mxCell>
        <mxCell id="qknaHqKINtFZTUZbZVZ1-44" value="" style="edgeStyle=orthogonalEdgeStyle;rounded=0;orthogonalLoop=1;jettySize=auto;html=1;strokeColor=#FF0000;strokeWidth=4;endArrow=none;endFill=0;" edge="1" parent="1" source="qknaHqKINtFZTUZbZVZ1-12" target="qknaHqKINtFZTUZbZVZ1-13">
          <mxGeometry relative="1" as="geometry" />
        </mxCell>
        <mxCell id="qknaHqKINtFZTUZbZVZ1-12" value="" style="shape=mxgraph.cisco.misc.longreach_cpe;sketch=0;html=1;pointerEvents=1;dashed=0;fillColor=#036897;strokeColor=#ffffff;strokeWidth=2;verticalLabelPosition=bottom;verticalAlign=top;align=center;outlineConnect=0;rotation=-90;" vertex="1" parent="1">
          <mxGeometry x="1347" y="1780" width="61" height="59" as="geometry" />
        </mxCell>
        <mxCell id="qknaHqKINtFZTUZbZVZ1-13" value="" style="shape=mxgraph.cisco.misc.longreach_cpe;sketch=0;html=1;pointerEvents=1;dashed=0;fillColor=#036897;strokeColor=#ffffff;strokeWidth=2;verticalLabelPosition=bottom;verticalAlign=top;align=center;outlineConnect=0;rotation=-90;" vertex="1" parent="1">
          <mxGeometry x="1487" y="1780" width="61" height="59" as="geometry" />
        </mxCell>
        <mxCell id="qknaHqKINtFZTUZbZVZ1-45" value="" style="edgeStyle=orthogonalEdgeStyle;rounded=0;orthogonalLoop=1;jettySize=auto;html=1;strokeColor=#FF0000;strokeWidth=4;endArrow=none;endFill=0;" edge="1" parent="1" source="qknaHqKINtFZTUZbZVZ1-14" target="qknaHqKINtFZTUZbZVZ1-15">
          <mxGeometry relative="1" as="geometry" />
        </mxCell>
        <mxCell id="qknaHqKINtFZTUZbZVZ1-14" value="" style="shape=mxgraph.cisco.misc.longreach_cpe;sketch=0;html=1;pointerEvents=1;dashed=0;fillColor=#036897;strokeColor=#ffffff;strokeWidth=2;verticalLabelPosition=bottom;verticalAlign=top;align=center;outlineConnect=0;rotation=-90;" vertex="1" parent="1">
          <mxGeometry x="1085" y="1890" width="61" height="59" as="geometry" />
        </mxCell>
        <mxCell id="qknaHqKINtFZTUZbZVZ1-46" value="" style="edgeStyle=orthogonalEdgeStyle;rounded=0;orthogonalLoop=1;jettySize=auto;html=1;strokeColor=#FF0000;strokeWidth=4;endArrow=none;endFill=0;" edge="1" parent="1" source="qknaHqKINtFZTUZbZVZ1-15" target="qknaHqKINtFZTUZbZVZ1-16">
          <mxGeometry relative="1" as="geometry" />
        </mxCell>
        <mxCell id="qknaHqKINtFZTUZbZVZ1-15" value="" style="shape=mxgraph.cisco.misc.longreach_cpe;sketch=0;html=1;pointerEvents=1;dashed=0;fillColor=#036897;strokeColor=#ffffff;strokeWidth=2;verticalLabelPosition=bottom;verticalAlign=top;align=center;outlineConnect=0;rotation=-90;" vertex="1" parent="1">
          <mxGeometry x="1219" y="1890" width="61" height="59" as="geometry" />
        </mxCell>
        <mxCell id="qknaHqKINtFZTUZbZVZ1-47" value="" style="edgeStyle=orthogonalEdgeStyle;rounded=0;orthogonalLoop=1;jettySize=auto;html=1;strokeColor=#FF0000;strokeWidth=4;endArrow=none;endFill=0;" edge="1" parent="1" source="qknaHqKINtFZTUZbZVZ1-16" target="qknaHqKINtFZTUZbZVZ1-17">
          <mxGeometry relative="1" as="geometry" />
        </mxCell>
        <mxCell id="qknaHqKINtFZTUZbZVZ1-16" value="" style="shape=mxgraph.cisco.misc.longreach_cpe;sketch=0;html=1;pointerEvents=1;dashed=0;fillColor=#036897;strokeColor=#ffffff;strokeWidth=2;verticalLabelPosition=bottom;verticalAlign=top;align=center;outlineConnect=0;rotation=-90;" vertex="1" parent="1">
          <mxGeometry x="1348" y="1890" width="61" height="59" as="geometry" />
        </mxCell>
        <mxCell id="qknaHqKINtFZTUZbZVZ1-17" value="" style="shape=mxgraph.cisco.misc.longreach_cpe;sketch=0;html=1;pointerEvents=1;dashed=0;fillColor=#036897;strokeColor=#ffffff;strokeWidth=2;verticalLabelPosition=bottom;verticalAlign=top;align=center;outlineConnect=0;rotation=-90;" vertex="1" parent="1">
          <mxGeometry x="1488" y="1890" width="61" height="59" as="geometry" />
        </mxCell>
        <mxCell id="qknaHqKINtFZTUZbZVZ1-48" value="" style="edgeStyle=orthogonalEdgeStyle;rounded=0;orthogonalLoop=1;jettySize=auto;html=1;strokeColor=#FF0000;strokeWidth=4;endArrow=none;endFill=0;" edge="1" parent="1" source="qknaHqKINtFZTUZbZVZ1-18" target="qknaHqKINtFZTUZbZVZ1-19">
          <mxGeometry relative="1" as="geometry" />
        </mxCell>
        <mxCell id="qknaHqKINtFZTUZbZVZ1-18" value="" style="shape=mxgraph.cisco.misc.longreach_cpe;sketch=0;html=1;pointerEvents=1;dashed=0;fillColor=#036897;strokeColor=#ffffff;strokeWidth=2;verticalLabelPosition=bottom;verticalAlign=top;align=center;outlineConnect=0;rotation=-90;" vertex="1" parent="1">
          <mxGeometry x="1084" y="2000" width="61" height="59" as="geometry" />
        </mxCell>
        <mxCell id="qknaHqKINtFZTUZbZVZ1-49" value="" style="edgeStyle=orthogonalEdgeStyle;rounded=0;orthogonalLoop=1;jettySize=auto;html=1;strokeColor=#FF0000;strokeWidth=4;endArrow=none;endFill=0;" edge="1" parent="1" source="qknaHqKINtFZTUZbZVZ1-19" target="qknaHqKINtFZTUZbZVZ1-20">
          <mxGeometry relative="1" as="geometry" />
        </mxCell>
        <mxCell id="qknaHqKINtFZTUZbZVZ1-19" value="" style="shape=mxgraph.cisco.misc.longreach_cpe;sketch=0;html=1;pointerEvents=1;dashed=0;fillColor=#036897;strokeColor=#ffffff;strokeWidth=2;verticalLabelPosition=bottom;verticalAlign=top;align=center;outlineConnect=0;rotation=-90;" vertex="1" parent="1">
          <mxGeometry x="1218" y="2000" width="61" height="59" as="geometry" />
        </mxCell>
        <mxCell id="qknaHqKINtFZTUZbZVZ1-50" value="" style="edgeStyle=orthogonalEdgeStyle;rounded=0;orthogonalLoop=1;jettySize=auto;html=1;strokeColor=#FF0000;strokeWidth=4;endArrow=none;endFill=0;" edge="1" parent="1" source="qknaHqKINtFZTUZbZVZ1-20" target="qknaHqKINtFZTUZbZVZ1-21">
          <mxGeometry relative="1" as="geometry" />
        </mxCell>
        <mxCell id="qknaHqKINtFZTUZbZVZ1-20" value="" style="shape=mxgraph.cisco.misc.longreach_cpe;sketch=0;html=1;pointerEvents=1;dashed=0;fillColor=#036897;strokeColor=#ffffff;strokeWidth=2;verticalLabelPosition=bottom;verticalAlign=top;align=center;outlineConnect=0;rotation=-90;" vertex="1" parent="1">
          <mxGeometry x="1347" y="2000" width="61" height="59" as="geometry" />
        </mxCell>
        <mxCell id="qknaHqKINtFZTUZbZVZ1-21" value="" style="shape=mxgraph.cisco.misc.longreach_cpe;sketch=0;html=1;pointerEvents=1;dashed=0;fillColor=#036897;strokeColor=#ffffff;strokeWidth=2;verticalLabelPosition=bottom;verticalAlign=top;align=center;outlineConnect=0;rotation=-90;" vertex="1" parent="1">
          <mxGeometry x="1487" y="2000" width="61" height="59" as="geometry" />
        </mxCell>
        <mxCell id="qknaHqKINtFZTUZbZVZ1-24" style="rounded=0;orthogonalLoop=1;jettySize=auto;html=1;exitX=1;exitY=0.5;exitDx=0;exitDy=0;exitPerimeter=0;endArrow=none;endFill=0;strokeWidth=4;" edge="1" parent="1">
          <mxGeometry relative="1" as="geometry">
            <mxPoint x="620" y="2110" as="sourcePoint" />
            <mxPoint x="729" y="2110" as="targetPoint" />
          </mxGeometry>
        </mxCell>
        <mxCell id="qknaHqKINtFZTUZbZVZ1-31" value="" style="group" vertex="1" connectable="0" parent="1">
          <mxGeometry x="795" y="2090" width="109" height="20" as="geometry" />
        </mxCell>
        <mxCell id="qknaHqKINtFZTUZbZVZ1-26" value="" style="ellipse;whiteSpace=wrap;html=1;aspect=fixed;fillColor=none;strokeColor=#FF0000;strokeWidth=4;" vertex="1" parent="qknaHqKINtFZTUZbZVZ1-31">
          <mxGeometry x="44.5" width="20" height="20" as="geometry" />
        </mxCell>
        <mxCell id="qknaHqKINtFZTUZbZVZ1-27" style="rounded=0;orthogonalLoop=1;jettySize=auto;html=1;exitX=1;exitY=0.5;exitDx=0;exitDy=0;exitPerimeter=0;endArrow=none;endFill=0;strokeWidth=4;strokeColor=#FF0000;" edge="1" parent="qknaHqKINtFZTUZbZVZ1-31">
          <mxGeometry relative="1" as="geometry">
            <mxPoint y="20" as="sourcePoint" />
            <mxPoint x="109" y="20" as="targetPoint" />
          </mxGeometry>
        </mxCell>
        <mxCell id="qknaHqKINtFZTUZbZVZ1-33" value="馈线：" style="text;html=1;align=center;verticalAlign=middle;whiteSpace=wrap;rounded=0;" vertex="1" parent="1">
          <mxGeometry x="560" y="2090" width="60" height="30" as="geometry" />
        </mxCell>
        <mxCell id="qknaHqKINtFZTUZbZVZ1-34" value="光纤：" style="text;html=1;align=center;verticalAlign=middle;whiteSpace=wrap;rounded=0;" vertex="1" parent="1">
          <mxGeometry x="750" y="2090" width="60" height="30" as="geometry" />
        </mxCell>
        <mxCell id="qknaHqKINtFZTUZbZVZ1-51" style="edgeStyle=orthogonalEdgeStyle;rounded=0;orthogonalLoop=1;jettySize=auto;html=1;exitX=0.73;exitY=1;exitDx=0;exitDy=0;exitPerimeter=0;entryX=0.5;entryY=0;entryDx=0;entryDy=0;entryPerimeter=0;strokeWidth=4;strokeColor=#FF0000;endArrow=none;endFill=0;" edge="1" parent="1" source="qknaHqKINtFZTUZbZVZ1-5" target="qknaHqKINtFZTUZbZVZ1-6">
          <mxGeometry relative="1" as="geometry">
            <Array as="points">
              <mxPoint x="941" y="1890" />
              <mxPoint x="1010" y="1890" />
              <mxPoint x="1010" y="1710" />
            </Array>
          </mxGeometry>
        </mxCell>
        <mxCell id="qknaHqKINtFZTUZbZVZ1-52" style="edgeStyle=orthogonalEdgeStyle;rounded=0;orthogonalLoop=1;jettySize=auto;html=1;exitX=0.62;exitY=1;exitDx=0;exitDy=0;exitPerimeter=0;entryX=0.5;entryY=0;entryDx=0;entryDy=0;entryPerimeter=0;strokeWidth=4;strokeColor=#FF0000;endArrow=none;endFill=0;" edge="1" parent="1" source="qknaHqKINtFZTUZbZVZ1-5" target="qknaHqKINtFZTUZbZVZ1-10">
          <mxGeometry relative="1" as="geometry" />
        </mxCell>
        <mxCell id="qknaHqKINtFZTUZbZVZ1-53" style="edgeStyle=orthogonalEdgeStyle;rounded=0;orthogonalLoop=1;jettySize=auto;html=1;exitX=0.5;exitY=1;exitDx=0;exitDy=0;exitPerimeter=0;entryX=0.5;entryY=0;entryDx=0;entryDy=0;entryPerimeter=0;strokeWidth=4;strokeColor=#FF0000;endArrow=none;endFill=0;" edge="1" parent="1" source="qknaHqKINtFZTUZbZVZ1-5" target="qknaHqKINtFZTUZbZVZ1-14">
          <mxGeometry relative="1" as="geometry" />
        </mxCell>
        <mxCell id="qknaHqKINtFZTUZbZVZ1-54" style="edgeStyle=orthogonalEdgeStyle;rounded=0;orthogonalLoop=1;jettySize=auto;html=1;exitX=0.22;exitY=1;exitDx=0;exitDy=0;exitPerimeter=0;entryX=0.5;entryY=0;entryDx=0;entryDy=0;entryPerimeter=0;strokeWidth=4;strokeColor=#FF0000;endArrow=none;endFill=0;" edge="1" parent="1" source="qknaHqKINtFZTUZbZVZ1-5" target="qknaHqKINtFZTUZbZVZ1-18">
          <mxGeometry relative="1" as="geometry">
            <Array as="points">
              <mxPoint x="890" y="1884" />
              <mxPoint x="890" y="2030" />
            </Array>
          </mxGeometry>
        </mxCell>
        <mxCell id="qknaHqKINtFZTUZbZVZ1-55" value="5G NR 信源" style="text;html=1;align=center;verticalAlign=middle;whiteSpace=wrap;rounded=0;fontStyle=1;fillColor=#ffe6cc;strokeColor=#d79b00;" vertex="1" parent="1">
          <mxGeometry x="610" y="1949" width="91.5" height="30" as="geometry" />
        </mxCell>
        <mxCell id="qknaHqKINtFZTUZbZVZ1-56" value="" style="ellipse;whiteSpace=wrap;html=1;aspect=fixed;fillColor=none;strokeColor=#FF0000;strokeWidth=4;" vertex="1" parent="1">
          <mxGeometry x="1030" y="1690" width="20" height="20" as="geometry" />
        </mxCell>
        <mxCell id="qknaHqKINtFZTUZbZVZ1-57" value="" style="ellipse;whiteSpace=wrap;html=1;aspect=fixed;fillColor=none;strokeColor=#FF0000;strokeWidth=4;" vertex="1" parent="1">
          <mxGeometry x="1050" y="1790" width="20" height="20" as="geometry" />
        </mxCell>
        <mxCell id="qknaHqKINtFZTUZbZVZ1-58" value="" style="ellipse;whiteSpace=wrap;html=1;aspect=fixed;fillColor=none;strokeColor=#FF0000;strokeWidth=4;" vertex="1" parent="1">
          <mxGeometry x="1050" y="1900" width="20" height="20" as="geometry" />
        </mxCell>
        <mxCell id="qknaHqKINtFZTUZbZVZ1-59" value="" style="ellipse;whiteSpace=wrap;html=1;aspect=fixed;fillColor=none;strokeColor=#FF0000;strokeWidth=4;" vertex="1" parent="1">
          <mxGeometry x="1050" y="2010" width="20" height="20" as="geometry" />
        </mxCell>
        <mxCell id="qknaHqKINtFZTUZbZVZ1-61" value="" style="ellipse;whiteSpace=wrap;html=1;aspect=fixed;fillColor=none;strokeColor=#FF0000;strokeWidth=4;" vertex="1" parent="1">
          <mxGeometry x="1170" y="2010" width="20" height="20" as="geometry" />
        </mxCell>
        <mxCell id="qknaHqKINtFZTUZbZVZ1-62" value="" style="ellipse;whiteSpace=wrap;html=1;aspect=fixed;fillColor=none;strokeColor=#FF0000;strokeWidth=4;" vertex="1" parent="1">
          <mxGeometry x="1300" y="2010" width="20" height="20" as="geometry" />
        </mxCell>
        <mxCell id="qknaHqKINtFZTUZbZVZ1-63" value="" style="ellipse;whiteSpace=wrap;html=1;aspect=fixed;fillColor=none;strokeColor=#FF0000;strokeWidth=4;" vertex="1" parent="1">
          <mxGeometry x="1440" y="2010" width="20" height="20" as="geometry" />
        </mxCell>
        <mxCell id="qknaHqKINtFZTUZbZVZ1-66" value="" style="ellipse;whiteSpace=wrap;html=1;aspect=fixed;fillColor=none;strokeColor=#FF0000;strokeWidth=4;" vertex="1" parent="1">
          <mxGeometry x="1170" y="1900" width="20" height="20" as="geometry" />
        </mxCell>
        <mxCell id="qknaHqKINtFZTUZbZVZ1-67" value="" style="ellipse;whiteSpace=wrap;html=1;aspect=fixed;fillColor=none;strokeColor=#FF0000;strokeWidth=4;" vertex="1" parent="1">
          <mxGeometry x="1300" y="1900" width="20" height="20" as="geometry" />
        </mxCell>
        <mxCell id="qknaHqKINtFZTUZbZVZ1-68" value="" style="ellipse;whiteSpace=wrap;html=1;aspect=fixed;fillColor=none;strokeColor=#FF0000;strokeWidth=4;" vertex="1" parent="1">
          <mxGeometry x="1440" y="1900" width="20" height="20" as="geometry" />
        </mxCell>
        <mxCell id="qknaHqKINtFZTUZbZVZ1-69" value="" style="ellipse;whiteSpace=wrap;html=1;aspect=fixed;fillColor=none;strokeColor=#FF0000;strokeWidth=4;" vertex="1" parent="1">
          <mxGeometry x="1170" y="1790" width="20" height="20" as="geometry" />
        </mxCell>
        <mxCell id="qknaHqKINtFZTUZbZVZ1-70" value="" style="ellipse;whiteSpace=wrap;html=1;aspect=fixed;fillColor=none;strokeColor=#FF0000;strokeWidth=4;" vertex="1" parent="1">
          <mxGeometry x="1300" y="1790" width="20" height="20" as="geometry" />
        </mxCell>
        <mxCell id="qknaHqKINtFZTUZbZVZ1-71" value="" style="ellipse;whiteSpace=wrap;html=1;aspect=fixed;fillColor=none;strokeColor=#FF0000;strokeWidth=4;" vertex="1" parent="1">
          <mxGeometry x="1440" y="1790" width="20" height="20" as="geometry" />
        </mxCell>
        <mxCell id="qknaHqKINtFZTUZbZVZ1-72" value="" style="ellipse;whiteSpace=wrap;html=1;aspect=fixed;fillColor=none;strokeColor=#FF0000;strokeWidth=4;" vertex="1" parent="1">
          <mxGeometry x="1170" y="1686" width="20" height="20" as="geometry" />
        </mxCell>
        <mxCell id="qknaHqKINtFZTUZbZVZ1-73" value="" style="ellipse;whiteSpace=wrap;html=1;aspect=fixed;fillColor=none;strokeColor=#FF0000;strokeWidth=4;" vertex="1" parent="1">
          <mxGeometry x="1300" y="1686" width="20" height="20" as="geometry" />
        </mxCell>
        <mxCell id="qknaHqKINtFZTUZbZVZ1-74" value="" style="ellipse;whiteSpace=wrap;html=1;aspect=fixed;fillColor=none;strokeColor=#FF0000;strokeWidth=4;" vertex="1" parent="1">
          <mxGeometry x="1440" y="1686" width="20" height="20" as="geometry" />
        </mxCell>
        <mxCell id="qknaHqKINtFZTUZbZVZ1-75" value="MU" style="text;html=1;align=center;verticalAlign=middle;whiteSpace=wrap;rounded=0;fontStyle=1" vertex="1" parent="1">
          <mxGeometry x="770" y="1890" width="91.5" height="30" as="geometry" />
        </mxCell>
        <mxCell id="qknaHqKINtFZTUZbZVZ1-76" value="RU11" style="text;html=1;align=center;verticalAlign=middle;whiteSpace=wrap;rounded=0;fontStyle=1" vertex="1" parent="1">
          <mxGeometry x="1068.75" y="1739" width="91.5" height="30" as="geometry" />
        </mxCell>
        <mxCell id="qknaHqKINtFZTUZbZVZ1-77" value="RU12" style="text;html=1;align=center;verticalAlign=middle;whiteSpace=wrap;rounded=0;fontStyle=1" vertex="1" parent="1">
          <mxGeometry x="1203.75" y="1739" width="91.5" height="30" as="geometry" />
        </mxCell>
        <mxCell id="qknaHqKINtFZTUZbZVZ1-78" value="RU13" style="text;html=1;align=center;verticalAlign=middle;whiteSpace=wrap;rounded=0;fontStyle=1" vertex="1" parent="1">
          <mxGeometry x="1332.75" y="1739" width="91.5" height="30" as="geometry" />
        </mxCell>
        <mxCell id="qknaHqKINtFZTUZbZVZ1-79" value="RU14" style="text;html=1;align=center;verticalAlign=middle;whiteSpace=wrap;rounded=0;fontStyle=1" vertex="1" parent="1">
          <mxGeometry x="1467.75" y="1739" width="91.5" height="30" as="geometry" />
        </mxCell>
        <mxCell id="qknaHqKINtFZTUZbZVZ1-80" value="RU21" style="text;html=1;align=center;verticalAlign=middle;whiteSpace=wrap;rounded=0;fontStyle=1" vertex="1" parent="1">
          <mxGeometry x="1070" y="1844" width="91.5" height="30" as="geometry" />
        </mxCell>
        <mxCell id="qknaHqKINtFZTUZbZVZ1-81" value="RU22" style="text;html=1;align=center;verticalAlign=middle;whiteSpace=wrap;rounded=0;fontStyle=1" vertex="1" parent="1">
          <mxGeometry x="1205" y="1844" width="91.5" height="30" as="geometry" />
        </mxCell>
        <mxCell id="qknaHqKINtFZTUZbZVZ1-82" value="RU23" style="text;html=1;align=center;verticalAlign=middle;whiteSpace=wrap;rounded=0;fontStyle=1" vertex="1" parent="1">
          <mxGeometry x="1334" y="1844" width="91.5" height="30" as="geometry" />
        </mxCell>
        <mxCell id="qknaHqKINtFZTUZbZVZ1-83" value="RU24" style="text;html=1;align=center;verticalAlign=middle;whiteSpace=wrap;rounded=0;fontStyle=1" vertex="1" parent="1">
          <mxGeometry x="1469" y="1844" width="91.5" height="30" as="geometry" />
        </mxCell>
        <mxCell id="qknaHqKINtFZTUZbZVZ1-84" value="RU31" style="text;html=1;align=center;verticalAlign=middle;whiteSpace=wrap;rounded=0;fontStyle=1" vertex="1" parent="1">
          <mxGeometry x="1070" y="1949" width="91.5" height="30" as="geometry" />
        </mxCell>
        <mxCell id="qknaHqKINtFZTUZbZVZ1-85" value="RU32" style="text;html=1;align=center;verticalAlign=middle;whiteSpace=wrap;rounded=0;fontStyle=1" vertex="1" parent="1">
          <mxGeometry x="1205" y="1949" width="91.5" height="30" as="geometry" />
        </mxCell>
        <mxCell id="qknaHqKINtFZTUZbZVZ1-86" value="RU33" style="text;html=1;align=center;verticalAlign=middle;whiteSpace=wrap;rounded=0;fontStyle=1" vertex="1" parent="1">
          <mxGeometry x="1334" y="1949" width="91.5" height="30" as="geometry" />
        </mxCell>
        <mxCell id="qknaHqKINtFZTUZbZVZ1-87" value="RU34" style="text;html=1;align=center;verticalAlign=middle;whiteSpace=wrap;rounded=0;fontStyle=1" vertex="1" parent="1">
          <mxGeometry x="1469" y="1949" width="91.5" height="30" as="geometry" />
        </mxCell>
        <mxCell id="qknaHqKINtFZTUZbZVZ1-88" value="RU41" style="text;html=1;align=center;verticalAlign=middle;whiteSpace=wrap;rounded=0;fontStyle=1" vertex="1" parent="1">
          <mxGeometry x="1070" y="2060" width="91.5" height="30" as="geometry" />
        </mxCell>
        <mxCell id="qknaHqKINtFZTUZbZVZ1-89" value="RU42" style="text;html=1;align=center;verticalAlign=middle;whiteSpace=wrap;rounded=0;fontStyle=1" vertex="1" parent="1">
          <mxGeometry x="1205" y="2060" width="91.5" height="30" as="geometry" />
        </mxCell>
        <mxCell id="qknaHqKINtFZTUZbZVZ1-90" value="RU43" style="text;html=1;align=center;verticalAlign=middle;whiteSpace=wrap;rounded=0;fontStyle=1" vertex="1" parent="1">
          <mxGeometry x="1334" y="2060" width="91.5" height="30" as="geometry" />
        </mxCell>
        <mxCell id="qknaHqKINtFZTUZbZVZ1-91" value="RU44" style="text;html=1;align=center;verticalAlign=middle;whiteSpace=wrap;rounded=0;fontStyle=1" vertex="1" parent="1">
          <mxGeometry x="1469" y="2060" width="91.5" height="30" as="geometry" />
        </mxCell>
      </root>
    </mxGraphModel>
  </diagram>
</mxfile>
